<?xml version="1.0" encoding="UTF-8" standalone="no"?>
<!-- Created with Inkscape (http://www.inkscape.org/) -->

<svg
   xmlns:dc="http://purl.org/dc/elements/1.1/"
   xmlns:cc="http://creativecommons.org/ns#"
   xmlns:rdf="http://www.w3.org/1999/02/22-rdf-syntax-ns#"
   xmlns:svg="http://www.w3.org/2000/svg"
   xmlns="http://www.w3.org/2000/svg"
   xmlns:sodipodi="http://sodipodi.sourceforge.net/DTD/sodipodi-0.dtd"
   xmlns:inkscape="http://www.inkscape.org/namespaces/inkscape"
   width="256"
   height="256"
   viewBox="0 0 256 256"
   id="svg2"
   version="1.1"
   inkscape:version="0.91 r13725"
   sodipodi:docname="firstaid.svg">
  <defs
     id="defs4" />
  <sodipodi:namedview
     id="base"
     pagecolor="#ffffff"
     bordercolor="#666666"
     borderopacity="1.0"
     inkscape:pageopacity="0.0"
     inkscape:pageshadow="2"
     inkscape:zoom="1.4142136"
     inkscape:cx="139.62385"
     inkscape:cy="104.9388"
     inkscape:document-units="px"
     inkscape:current-layer="layer1"
     showgrid="false"
     units="px"
     inkscape:window-width="2560"
     inkscape:window-height="1536"
     inkscape:window-x="0"
     inkscape:window-y="0"
     inkscape:window-maximized="1" />
  <metadata
     id="metadata7">
    <rdf:RDF>
      <cc:Work
         rdf:about="">
        <dc:format>image/svg+xml</dc:format>
        <dc:type
           rdf:resource="http://purl.org/dc/dcmitype/StillImage" />
        <dc:title></dc:title>
      </cc:Work>
    </rdf:RDF>
  </metadata>
  <g
     inkscape:label="Ebene 1"
     inkscape:groupmode="layer"
     id="layer1"
     transform="translate(0,-796.36218)">
    <circle
       style="color:#000000;clip-rule:nonzero;display:inline;overflow:visible;visibility:visible;opacity:1;isolation:auto;mix-blend-mode:normal;color-interpolation:sRGB;color-interpolation-filters:linearRGB;solid-color:#000000;solid-opacity:1;fill:#ffffff;fill-opacity:1;fill-rule:nonzero;stroke:#a6121d;stroke-width:0;stroke-linecap:butt;stroke-linejoin:miter;stroke-miterlimit:4;stroke-dasharray:none;stroke-dashoffset:0;stroke-opacity:1;color-rendering:auto;image-rendering:auto;shape-rendering:auto;text-rendering:auto;enable-background:accumulate"
       id="path4848"
       cx="128"
       cy="924.36218"
       r="119.99999" />
    <g
       id="g4852"
       transform="matrix(0.89112594,0,0,0.89112594,17.098667,101.25693)">
      <path
         inkscape:connector-curvature="0"
         id="path4837"
         d="m 102.41327,965.96305 q 0,-20.77612 5.04563,-33.09339 5.04563,-12.31727 18.4017,-24.18934 13.50448,-12.02048 17.95651,-19.44052 4.45203,-7.56844 4.45203,-15.87889 0,-25.07975 -23.15054,-25.07975 -10.98166,0 -17.6597,6.82644 -6.52964,6.67804 -6.82644,18.55011 l -43.036256,0 q 0.2968,-28.34457 18.25331,-44.37186 18.10491,-16.0273 49.269086,-16.0273 31.46099,0 48.82389,15.28529 17.3629,15.13689 17.3629,42.88786 0,12.61407 -5.63923,23.89254 -5.63924,11.13006 -19.73732,24.78294 l -12.02047,11.42687 q -11.27847,10.83326 -12.91088,25.37655 l -0.5936,9.05245 -37.99062,0 z"
         style="font-style:normal;font-variant:normal;font-weight:600;font-stretch:normal;font-size:303.92498779px;line-height:125%;font-family:LOGOD10;-inkscape-font-specification:'LOGOD10, Semi-Bold';text-align:start;letter-spacing:0px;word-spacing:0px;writing-mode:lr-tb;text-anchor:start;fill:#004494;fill-opacity:1;stroke:#004494;stroke-width:0;stroke-linecap:butt;stroke-linejoin:miter;stroke-miterlimit:4;stroke-dasharray:none;stroke-opacity:1" />
      <path
         inkscape:connector-curvature="0"
         id="path4832"
         d="m 98.109644,1011.5222 q 0,-9.9429 6.678036,-16.32418 6.82644,-6.52963 17.3629,-6.52963 10.53646,0 17.2145,6.52963 6.82644,6.38128 6.82644,16.32418 0,9.7944 -6.67803,16.1756 -6.52964,6.3813 -17.36291,6.3813 -10.83326,0 -17.5113,-6.3813 -6.529636,-6.3812 -6.529636,-16.1756 z"
         style="font-style:normal;font-variant:normal;font-weight:600;font-stretch:normal;font-size:303.92498779px;line-height:125%;font-family:LOGOD10;-inkscape-font-specification:'LOGOD10, Semi-Bold';text-align:start;letter-spacing:0px;word-spacing:0px;writing-mode:lr-tb;text-anchor:start;fill:#a6121d;fill-opacity:1;stroke:#004494;stroke-width:0;stroke-linecap:butt;stroke-linejoin:miter;stroke-miterlimit:4;stroke-dasharray:none;stroke-opacity:1" />
    </g>
  </g>
</svg>
