<?xml version="1.0" encoding="UTF-8" standalone="no"?>
<!-- Created with Inkscape (http://www.inkscape.org/) -->

<svg
   xmlns:dc="http://purl.org/dc/elements/1.1/"
   xmlns:cc="http://creativecommons.org/ns#"
   xmlns:rdf="http://www.w3.org/1999/02/22-rdf-syntax-ns#"
   xmlns:svg="http://www.w3.org/2000/svg"
   xmlns="http://www.w3.org/2000/svg"
   xmlns:sodipodi="http://sodipodi.sourceforge.net/DTD/sodipodi-0.dtd"
   xmlns:inkscape="http://www.inkscape.org/namespaces/inkscape"
   width="256"
   height="256"
   viewBox="0 0 256 256"
   id="svg2"
   version="1.1"
   inkscape:version="0.91 r13725"
   sodipodi:docname="firstaid.svg"
   inkscape:export-filename="/local/mlangen/AbsInt/SVN/build/firstaid.default/firstaid/firstaid.png"
   inkscape:export-xdpi="180"
   inkscape:export-ydpi="180">
  <defs
     id="defs4" />
  <sodipodi:namedview
     id="base"
     pagecolor="#ffffff"
     bordercolor="#666666"
     borderopacity="1.0"
     inkscape:pageopacity="0.0"
     inkscape:pageshadow="2"
     inkscape:zoom="2.8284272"
     inkscape:cx="140.90117"
     inkscape:cy="114.29009"
     inkscape:document-units="px"
     inkscape:current-layer="layer1"
     showgrid="false"
     units="px"
     inkscape:window-width="2560"
     inkscape:window-height="1536"
     inkscape:window-x="0"
     inkscape:window-y="0"
     inkscape:window-maximized="1" />
  <metadata
     id="metadata7">
    <rdf:RDF>
      <cc:Work
         rdf:about="">
        <dc:format>image/svg+xml</dc:format>
        <dc:type
           rdf:resource="http://purl.org/dc/dcmitype/StillImage" />
        <dc:title />
      </cc:Work>
    </rdf:RDF>
  </metadata>
  <g
     inkscape:label="Ebene 1"
     inkscape:groupmode="layer"
     id="layer1"
     transform="translate(0,-796.36218)">
    <circle
       style="color:#000000;clip-rule:nonzero;display:inline;overflow:visible;visibility:visible;opacity:1;isolation:auto;mix-blend-mode:normal;color-interpolation:sRGB;color-interpolation-filters:linearRGB;solid-color:#000000;solid-opacity:1;fill:#ffffff;fill-opacity:1;fill-rule:nonzero;stroke:#a6121d;stroke-width:15;stroke-linecap:butt;stroke-linejoin:miter;stroke-miterlimit:4;stroke-dasharray:none;stroke-dashoffset:0;stroke-opacity:1;color-rendering:auto;image-rendering:auto;shape-rendering:auto;text-rendering:auto;enable-background:accumulate"
       id="path4848"
       cx="128"
       cy="924.36218"
       r="112.5" />
    <path
       sodipodi:nodetypes="csccssccccscscccccc"
       style="font-style:normal;font-variant:normal;font-weight:600;font-stretch:normal;font-size:303.92498779px;line-height:125%;font-family:LOGOD10;-inkscape-font-specification:'LOGOD10, Semi-Bold';text-align:start;letter-spacing:0px;word-spacing:0px;writing-mode:lr-tb;text-anchor:start;fill:#004494;fill-opacity:1;stroke:#004494;stroke-width:0;stroke-linecap:butt;stroke-linejoin:miter;stroke-miterlimit:4;stroke-dasharray:none;stroke-opacity:1"
       d="m 111.60792,965.19087 c 0,-10.30253 1.25103,-27.87694 3.75307,-33.98488 2.50204,-6.10793 7.0646,-12.10548 13.68766,-17.99265 6.69665,-5.96076 11.14882,-10.78088 13.35651,-14.46036 2.20769,-3.75307 3.31154,-7.69011 3.31154,-11.81113 0,-12.43664 -5.73999,-18.65496 -17.21997,-18.65496 -5.44563,0 -9.82421,1.69256 -13.13574,5.07768 -3.23794,3.31154 -4.9305,7.91089 -5.07768,13.79805 l -32.011477,0 c 0.147178,-14.05561 4.672938,-25.05726 13.577282,-33.00493 8.977935,-7.94768 21.193805,-11.92152 36.647615,-11.92152 15.60099,0 27.70648,3.78987 36.31647,11.36959 8.60998,7.50614 12.91497,18.13984 12.91497,31.9011 0,6.25511 -1.3982,12.17907 -4.19461,17.77188 -2.7964,5.51922 -7.69011,11.66395 -14.68112,18.43419 l -8.94114,8.4996 c -5.59281,5.37204 -8.79396,11.66395 -9.60344,18.87573 l -0.44154,16.10261 z"
       id="path4837"
       inkscape:connector-curvature="0" />
    <path
       inkscape:connector-curvature="0"
       id="path4832-2"
       d="m 95.824447,989.78748 q 0,-12.59961 8.462393,-20.68595 8.65043,-8.27434 22.0022,-8.27434 13.35177,0 21.81416,8.27434 8.65043,8.08634 8.65043,20.68595 0,12.41142 -8.46236,20.49772 -8.27436,8.0863 -22.00223,8.0863 -13.72787,0 -22.19026,-8.0863 -8.274333,-8.0863 -8.274333,-20.49772 z"
       style="font-style:normal;font-variant:normal;font-weight:600;font-stretch:normal;font-size:303.92498779px;line-height:125%;font-family:LOGOD10;-inkscape-font-specification:'LOGOD10, Semi-Bold';text-align:start;letter-spacing:0px;word-spacing:0px;writing-mode:lr-tb;text-anchor:start;fill:#ffffff;fill-opacity:1;stroke:#004494;stroke-width:0;stroke-linecap:butt;stroke-linejoin:miter;stroke-miterlimit:4;stroke-dasharray:none;stroke-opacity:1" />
    <path
       style="font-style:normal;font-variant:normal;font-weight:600;font-stretch:normal;font-size:303.92498779px;line-height:125%;font-family:LOGOD10;-inkscape-font-specification:'LOGOD10, Semi-Bold';text-align:start;letter-spacing:0px;word-spacing:0px;writing-mode:lr-tb;text-anchor:start;fill:#004494;fill-opacity:1;stroke:#004494;stroke-width:0;stroke-linecap:butt;stroke-linejoin:miter;stroke-miterlimit:4;stroke-dasharray:none;stroke-opacity:1"
       d="m 108.40677,989.70978 q 0,-7.39579 4.9673,-12.14235 5.07768,-4.8569 12.91497,-4.8569 7.83729,0 12.80459,4.8569 5.07768,4.74656 5.07768,12.14235 0,7.28533 -4.96729,12.03182 -4.85692,4.7466 -12.91498,4.7466 -8.05806,0 -13.02536,-4.7466 -4.85691,-4.74649 -4.85691,-12.03182 z"
       id="path4832"
       inkscape:connector-curvature="0" />
  </g>
</svg>
